<svg width="236" height="28" viewBox="0 0 236 28" fill="none" xmlns="http://www.w3.org/2000/svg">
<path d="M0.672 27L5.568 1.08H12.096L16.928 27H11.648L10.784 21.528H6.976L6.08 27H0.672ZM7.488 18.104H10.24L8.864 7.992L7.488 18.104ZM26.783 27.384C24.799 27.384 23.2417 27.064 22.111 26.424C21.0017 25.7627 20.223 24.8133 19.775 23.576C19.327 22.3173 19.103 20.7813 19.103 18.968V1.08H24.767V19.832C24.767 20.3653 24.8097 20.8987 24.895 21.432C24.9803 21.9653 25.1617 22.4027 25.439 22.744C25.7377 23.0853 26.1857 23.256 26.783 23.256C27.4017 23.256 27.8497 23.0853 28.127 22.744C28.4043 22.4027 28.575 21.9653 28.639 21.432C28.7243 20.8987 28.767 20.3653 28.767 19.832V1.08H34.463V18.968C34.463 20.7813 34.2283 22.3173 33.759 23.576C33.311 24.8133 32.5323 25.7627 31.423 26.424C30.3137 27.064 28.767 27.384 26.783 27.384ZM44.9875 27.384C43.3662 27.384 42.0115 27.096 40.9235 26.52C39.8355 25.944 39.0142 25.0587 38.4595 23.864C37.9048 22.648 37.5955 21.08 37.5315 19.16L42.4275 18.424C42.4488 19.5333 42.5448 20.4293 42.7155 21.112C42.9075 21.7947 43.1635 22.2853 43.4835 22.584C43.8248 22.8827 44.2302 23.032 44.6995 23.032C45.2968 23.032 45.6808 22.8293 45.8515 22.424C46.0435 22.0187 46.1395 21.592 46.1395 21.144C46.1395 20.0773 45.8835 19.1813 45.3715 18.456C44.8595 17.7093 44.1662 16.9627 43.2915 16.216L41.0515 14.264C40.0702 13.432 39.2382 12.4933 38.5555 11.448C37.8942 10.3813 37.5635 9.06933 37.5635 7.512C37.5635 5.31467 38.2142 3.64 39.5155 2.488C40.8168 1.31467 42.5875 0.727999 44.8275 0.727999C46.2142 0.727999 47.3235 0.962666 48.1555 1.432C49.0088 1.90133 49.6488 2.52 50.0755 3.288C50.5235 4.03467 50.8222 4.83467 50.9715 5.688C51.1422 6.52 51.2382 7.32 51.2595 8.088L46.3315 8.696C46.3102 7.928 46.2568 7.26667 46.1715 6.712C46.1075 6.136 45.9582 5.69867 45.7235 5.4C45.4888 5.08 45.1262 4.92 44.6355 4.92C44.1022 4.92 43.7075 5.144 43.4515 5.592C43.2168 6.04 43.0995 6.488 43.0995 6.936C43.0995 7.896 43.3235 8.68533 43.7715 9.304C44.2408 9.90133 44.8488 10.5307 45.5955 11.192L47.7395 13.08C48.8702 14.04 49.8195 15.128 50.5875 16.344C51.3768 17.56 51.7715 19.064 51.7715 20.856C51.7715 22.072 51.4942 23.1813 50.9395 24.184C50.3848 25.1653 49.5955 25.944 48.5715 26.52C47.5688 27.096 46.3742 27.384 44.9875 27.384ZM56.881 27V5.336H52.977V1.08H66.513V5.336H62.641V27H56.881ZM68.795 27V1.08H75.931C77.6803 1.08 79.195 1.272 80.475 1.656C81.755 2.04 82.747 2.73333 83.451 3.736C84.1763 4.71733 84.539 6.11467 84.539 7.928C84.539 8.99467 84.4537 9.944 84.283 10.776C84.1123 11.608 83.7923 12.3333 83.323 12.952C82.875 13.5493 82.2243 14.0507 81.371 14.456L84.923 27H79.003L76.155 15.384H74.523V27H68.795ZM74.523 12.088H76.123C76.9337 12.088 77.563 11.9493 78.011 11.672C78.459 11.3733 78.7683 10.9573 78.939 10.424C79.131 9.86933 79.227 9.208 79.227 8.44C79.227 7.33067 79.0243 6.46667 78.619 5.848C78.2137 5.22933 77.467 4.92 76.379 4.92H74.523V12.088ZM88.0145 27V1.08H93.7425V27H88.0145ZM96.3595 27L101.256 1.08H107.784L112.616 27H107.336L106.472 21.528H102.664L101.768 27H96.3595ZM103.176 18.104H105.928L104.552 7.992L103.176 18.104ZM123.42 27V1.08H135.068V4.984H129.148V11.416H133.66V15.384H129.148V23.128H135.132V27H123.42ZM136.037 27L141.061 13.048L136.261 1.08H141.669L144.517 8.088L146.821 1.08H151.589L147.045 14.552L152.101 27H146.725L143.557 19.256L140.773 27H136.037ZM154.201 27V1.08H162.905C164.463 1.08 165.743 1.37866 166.745 1.976C167.748 2.552 168.495 3.40533 168.985 4.536C169.476 5.64533 169.721 7 169.721 8.6C169.721 10.6053 169.391 12.1413 168.729 13.208C168.068 14.2533 167.172 14.9787 166.041 15.384C164.911 15.7893 163.641 15.992 162.233 15.992H159.929V27H154.201ZM159.929 11.992H161.849C162.553 11.992 163.087 11.864 163.449 11.608C163.812 11.352 164.047 10.968 164.153 10.456C164.281 9.944 164.345 9.29333 164.345 8.504C164.345 7.84267 164.292 7.26667 164.185 6.776C164.1 6.264 163.876 5.85867 163.513 5.56C163.151 5.26133 162.585 5.112 161.817 5.112H159.929V11.992ZM172.483 27V1.08H179.619C181.368 1.08 182.883 1.272 184.163 1.656C185.443 2.04 186.435 2.73333 187.139 3.736C187.864 4.71733 188.227 6.11467 188.227 7.928C188.227 8.99467 188.141 9.944 187.971 10.776C187.8 11.608 187.48 12.3333 187.01 12.952C186.563 13.5493 185.912 14.0507 185.059 14.456L188.611 27H182.691L179.843 15.384H178.211V27H172.483ZM178.211 12.088H179.811C180.621 12.088 181.251 11.9493 181.699 11.672C182.147 11.3733 182.456 10.9573 182.627 10.424C182.819 9.86933 182.915 9.208 182.915 8.44C182.915 7.33067 182.712 6.46667 182.307 5.848C181.901 5.22933 181.155 4.92 180.067 4.92H178.211V12.088ZM191.67 27V1.08H203.318V4.984H197.398V11.416H201.91V15.384H197.398V23.128H203.382V27H191.67ZM212.863 27.384C211.241 27.384 209.887 27.096 208.799 26.52C207.711 25.944 206.889 25.0587 206.335 23.864C205.78 22.648 205.471 21.08 205.407 19.16L210.303 18.424C210.324 19.5333 210.42 20.4293 210.591 21.112C210.783 21.7947 211.039 22.2853 211.359 22.584C211.7 22.8827 212.105 23.032 212.575 23.032C213.172 23.032 213.556 22.8293 213.727 22.424C213.919 22.0187 214.015 21.592 214.015 21.144C214.015 20.0773 213.759 19.1813 213.247 18.456C212.735 17.7093 212.041 16.9627 211.167 16.216L208.927 14.264C207.945 13.432 207.113 12.4933 206.431 11.448C205.769 10.3813 205.439 9.06933 205.439 7.512C205.439 5.31467 206.089 3.64 207.391 2.488C208.692 1.31467 210.463 0.727999 212.703 0.727999C214.089 0.727999 215.199 0.962666 216.031 1.432C216.884 1.90133 217.524 2.52 217.951 3.288C218.399 4.03467 218.697 4.83467 218.847 5.688C219.017 6.52 219.113 7.32 219.135 8.088L214.207 8.696C214.185 7.928 214.132 7.26667 214.047 6.712C213.983 6.136 213.833 5.69867 213.599 5.4C213.364 5.08 213.001 4.92 212.51 4.92C211.977 4.92 211.583 5.144 211.327 5.592C211.092 6.04 210.975 6.488 210.975 6.936C210.975 7.896 211.199 8.68533 211.647 9.304C212.116 9.90133 212.724 10.5307 213.47 11.192L215.615 13.08C216.745 14.04 217.695 15.128 218.463 16.344C219.252 17.56 219.647 19.064 219.647 20.856C219.647 22.072 219.369 23.1813 218.815 24.184C218.26 25.1653 217.471 25.944 216.447 26.52C215.444 27.096 214.249 27.384 212.863 27.384ZM228.769 27.384C227.147 27.384 225.793 27.096 224.705 26.52C223.617 25.944 222.795 25.0587 222.241 23.864C221.686 22.648 221.377 21.08 221.313 19.16L226.209 18.424C226.23 19.5333 226.326 20.4293 226.497 21.112C226.689 21.7947 226.945 22.2853 227.265 22.584C227.606 22.8827 228.011 23.032 228.481 23.032C229.078 23.032 229.462 22.8293 229.633 22.424C229.825 22.0187 229.921 21.592 229.921 21.144C229.921 20.0773 229.665 19.1813 229.153 18.456C228.641 17.7093 227.947 16.9627 227.073 16.216L224.833 14.264C223.851 13.432 223.019 12.4933 222.337 11.448C221.675 10.3813 221.345 9.06933 221.345 7.512C221.345 5.31467 221.995 3.64 223.297 2.488C224.598 1.31467 226.369 0.727999 228.609 0.727999C229.995 0.727999 231.105 0.962666 231.937 1.432C232.79 1.90133 233.43 2.52 233.857 3.288C234.305 4.03467 234.603 4.83467 234.753 5.688C234.923 6.52 235.019 7.32 235.041 8.088L230.113 8.696C230.091 7.928 230.038 7.26667 229.953 6.712C229.889 6.136 229.739 5.69867 229.505 5.4C229.27 5.08 228.907 4.92 228.417 4.92C227.883 4.92 227.489 5.144 227.233 5.592C226.998 6.04 226.881 6.488 226.881 6.936C226.881 7.896 227.105 8.68533 227.553 9.304C228.022 9.90133 228.63 10.5307 229.377 11.192L231.521 13.08C232.651 14.04 233.601 15.128 234.369 16.344C235.158 17.56 235.553 19.064 235.553 20.856C235.553 22.072 235.275 23.1813 234.721 24.184C234.166 25.1653 233.377 25.944 232.353 26.52C231.35 27.096 230.155 27.384 228.769 27.384Z" fill="#3B82F6"/>
</svg>
