<svg width="319" height="37" viewBox="0 0 319 37" fill="none" xmlns="http://www.w3.org/2000/svg">
<path d="M0.91 36L7.54 0.899995H16.38L22.9233 36H15.7733L14.6033 28.59H9.44667L8.23333 36H0.91ZM10.14 23.9533H13.8667L12.0033 10.26L10.14 23.9533ZM36.2686 36.52C33.582 36.52 31.4731 36.0867 29.942 35.22C28.4398 34.3244 27.3853 33.0389 26.7786 31.3633C26.172 29.6589 25.8686 27.5789 25.8686 25.1233V0.899995H33.5386V26.2933C33.5386 27.0156 33.5964 27.7378 33.712 28.46C33.8275 29.1822 34.0731 29.7744 34.4486 30.2367C34.8531 30.6989 35.4598 30.93 36.2686 30.93C37.1064 30.93 37.7131 30.6989 38.0886 30.2367C38.4642 29.7744 38.6953 29.1822 38.782 28.46C38.8975 27.7378 38.9553 27.0156 38.9553 26.2933V0.899995H46.6686V25.1233C46.6686 27.5789 46.3509 29.6589 45.7153 31.3633C45.1086 33.0389 44.0542 34.3244 42.552 35.22C41.0498 36.0867 38.9553 36.52 36.2686 36.52ZM60.9206 36.52C58.725 36.52 56.8906 36.13 55.4172 35.35C53.9439 34.57 52.8317 33.3711 52.0806 31.7533C51.3295 30.1067 50.9106 27.9833 50.8239 25.3833L57.4539 24.3867C57.4828 25.8889 57.6128 27.1022 57.8439 28.0267C58.1039 28.9511 58.4506 29.6156 58.8839 30.02C59.3461 30.4244 59.895 30.6267 60.5306 30.6267C61.3395 30.6267 61.8595 30.3522 62.0906 29.8033C62.3506 29.2544 62.4806 28.6767 62.4806 28.07C62.4806 26.6256 62.1339 25.4122 61.4406 24.43C60.7472 23.4189 59.8084 22.4078 58.6239 21.3967L55.5906 18.7533C54.2617 17.6267 53.135 16.3556 52.2106 14.94C51.315 13.4956 50.8672 11.7189 50.8672 9.61C50.8672 6.63444 51.7484 4.36666 53.5106 2.80666C55.2728 1.21777 57.6706 0.42333 60.7039 0.42333C62.5817 0.42333 64.0839 0.741108 65.2106 1.37666C66.3661 2.01222 67.2328 2.85 67.8106 3.89C68.4172 4.90111 68.8217 5.98444 69.0239 7.14C69.255 8.26666 69.385 9.35 69.4139 10.39L62.7406 11.2133C62.7117 10.1733 62.6395 9.27778 62.5239 8.52666C62.4372 7.74666 62.235 7.15444 61.9172 6.75C61.5995 6.31666 61.1084 6.1 60.4439 6.1C59.7217 6.1 59.1872 6.40333 58.8406 7.01C58.5228 7.61666 58.3639 8.22333 58.3639 8.83C58.3639 10.13 58.6672 11.1989 59.2739 12.0367C59.9095 12.8456 60.7328 13.6978 61.7439 14.5933L64.6472 17.15C66.1784 18.45 67.4639 19.9233 68.5039 21.57C69.5728 23.2167 70.1072 25.2533 70.1072 27.68C70.1072 29.3267 69.7317 30.8289 68.9806 32.1867C68.2295 33.5156 67.1606 34.57 65.7739 35.35C64.4161 36.13 62.7984 36.52 60.9206 36.52ZM77.0264 36V6.66333H71.7397V0.899995H90.0697V6.66333H84.8264V36H77.0264ZM93.1599 36V0.899995H102.823C105.192 0.899995 107.243 1.16 108.977 1.68C110.71 2.2 112.053 3.13888 113.007 4.49666C113.989 5.82555 114.48 7.71777 114.48 10.1733C114.48 11.6178 114.364 12.9033 114.133 14.03C113.902 15.1567 113.469 16.1389 112.833 16.9767C112.227 17.7856 111.345 18.4644 110.19 19.0133L115 36H106.983L103.127 20.27H100.917V36H93.1599ZM100.917 15.8067H103.083C104.181 15.8067 105.033 15.6189 105.64 15.2433C106.247 14.8389 106.665 14.2756 106.897 13.5533C107.157 12.8022 107.287 11.9067 107.287 10.8667C107.287 9.36444 107.012 8.19444 106.463 7.35666C105.914 6.51889 104.903 6.1 103.43 6.1H100.917V15.8067ZM119.186 36V0.899995H126.943V36H119.186ZM130.487 36L137.117 0.899995H145.957L152.5 36H145.35L144.18 28.59H139.023L137.81 36H130.487ZM139.717 23.9533H143.443L141.58 10.26L139.717 23.9533ZM167.131 36V0.899995H182.905V6.18666H174.888V14.8967H180.998V20.27H174.888V30.7567H182.991V36H167.131ZM184.216 36L191.019 17.1067L184.519 0.899995H191.843L195.699 10.39L198.819 0.899995H205.276L199.123 19.1433L205.969 36H198.689L194.399 25.5133L190.629 36H184.216ZM208.814 36V0.899995H220.601C222.71 0.899995 224.443 1.30444 225.801 2.11333C227.159 2.89333 228.17 4.04889 228.834 5.58C229.499 7.08222 229.831 8.91666 229.831 11.0833C229.831 13.7989 229.383 15.8789 228.488 17.3233C227.592 18.7389 226.379 19.7211 224.848 20.27C223.316 20.8189 221.598 21.0933 219.691 21.0933H216.571V36H208.814ZM216.571 15.6767H219.171C220.124 15.6767 220.846 15.5033 221.338 15.1567C221.829 14.81 222.146 14.29 222.291 13.5967C222.464 12.9033 222.551 12.0222 222.551 10.9533C222.551 10.0578 222.479 9.27778 222.334 8.61333C222.219 7.92 221.915 7.37111 221.424 6.96666C220.933 6.56222 220.168 6.36 219.128 6.36H216.571V15.6767ZM233.57 36V0.899995H243.233C245.602 0.899995 247.653 1.16 249.387 1.68C251.12 2.2 252.463 3.13888 253.417 4.49666C254.399 5.82555 254.89 7.71777 254.89 10.1733C254.89 11.6178 254.775 12.9033 254.543 14.03C254.312 15.1567 253.879 16.1389 253.243 16.9767C252.637 17.7856 251.756 18.4644 250.6 19.0133L255.41 36H247.393L243.537 20.27H241.327V36H233.57ZM241.327 15.8067H243.493C244.591 15.8067 245.443 15.6189 246.05 15.2433C246.657 14.8389 247.076 14.2756 247.307 13.5533C247.567 12.8022 247.697 11.9067 247.697 10.8667C247.697 9.36444 247.422 8.19444 246.873 7.35666C246.325 6.51889 245.313 6.1 243.84 6.1H241.327V15.8067ZM259.553 36V0.899995H275.326V6.18666H267.31V14.8967H273.42V20.27H267.31V30.7567H275.413V36H259.553ZM288.251 36.52C286.056 36.52 284.221 36.13 282.748 35.35C281.275 34.57 280.162 33.3711 279.411 31.7533C278.66 30.1067 278.241 27.9833 278.155 25.3833L284.785 24.3867C284.814 25.8889 284.944 27.1022 285.175 28.0267C285.435 28.9511 285.781 29.6156 286.215 30.02C286.677 30.4244 287.226 30.6267 287.861 30.6267C288.67 30.6267 289.19 30.3522 289.421 29.8033C289.681 29.2544 289.811 28.6767 289.811 28.07C289.811 26.6256 289.465 25.4122 288.771 24.43C288.078 23.4189 287.139 22.4078 285.955 21.3967L282.921 18.7533C281.592 17.6267 280.466 16.3556 279.541 14.94C278.646 13.4956 278.198 11.7189 278.198 9.61C278.198 6.63444 279.079 4.36666 280.841 2.80666C282.604 1.21777 285.001 0.42333 288.035 0.42333C289.912 0.42333 291.415 0.741108 292.541 1.37666C293.697 2.01222 294.564 2.85 295.141 3.89C295.748 4.90111 296.152 5.98444 296.355 7.14C296.586 8.26666 296.716 9.35 296.745 10.39L290.071 11.2133C290.042 10.1733 289.97 9.27778 289.855 8.52666C289.768 7.74666 289.566 7.15444 289.248 6.75C288.93 6.31666 288.439 6.1 287.775 6.1C287.052 6.1 286.518 6.40333 286.171 7.01C285.854 7.61666 285.695 8.22333 285.695 8.83C285.695 10.13 285.998 11.1989 286.605 12.0367C287.24 12.8456 288.064 13.6978 289.075 14.5933L291.978 17.15C293.509 18.45 294.795 19.9233 295.835 21.57C296.904 23.2167 297.438 25.2533 297.438 27.68C297.438 29.3267 297.062 30.8289 296.311 32.1867C295.56 33.5156 294.491 34.57 293.105 35.35C291.747 36.13 290.129 36.52 288.251 36.52ZM309.791 36.52C307.595 36.52 305.761 36.13 304.288 35.35C302.814 34.57 301.702 33.3711 300.951 31.7533C300.2 30.1067 299.781 27.9833 299.694 25.3833L306.324 24.3867C306.353 25.8889 306.483 27.1022 306.714 28.0267C306.974 28.9511 307.321 29.6156 307.754 30.02C308.217 30.4244 308.765 30.6267 309.401 30.6267C310.21 30.6267 310.73 30.3522 310.961 29.8033C311.221 29.2544 311.351 28.6767 311.351 28.07C311.351 26.6256 311.004 25.4122 310.311 24.43C309.618 23.4189 308.679 22.4078 307.494 21.3967L304.461 18.7533C303.132 17.6267 302.005 16.3556 301.081 14.94C300.185 13.4956 299.738 11.7189 299.738 9.61C299.738 6.63444 300.619 4.36666 302.381 2.80666C304.143 1.21777 306.541 0.42333 309.574 0.42333C311.452 0.42333 312.954 0.741108 314.081 1.37666C315.237 2.01222 316.103 2.85 316.681 3.89C317.288 4.90111 317.692 5.98444 317.894 7.14C318.125 8.26666 318.255 9.35 318.284 10.39L311.611 11.2133C311.582 10.1733 311.51 9.27778 311.394 8.52666C311.308 7.74666 311.105 7.15444 310.788 6.75C310.47 6.31666 309.979 6.1 309.314 6.1C308.592 6.1 308.058 6.40333 307.711 7.01C307.393 7.61666 307.234 8.22333 307.234 8.83C307.234 10.13 307.538 11.1989 308.144 12.0367C308.78 12.8456 309.603 13.6978 310.614 14.5933L313.518 17.15C315.049 18.45 316.334 19.9233 317.374 21.57C318.443 23.2167 318.978 25.2533 318.978 27.68C318.978 29.3267 318.602 30.8289 317.851 32.1867C317.1 33.5156 316.031 34.57 314.644 35.35C313.287 36.13 311.669 36.52 309.791 36.52Z" fill="white"/>
</svg>
