<svg width="24" height="24" viewBox="0 0 24 24" fill="none" xmlns="http://www.w3.org/2000/svg">
<path d="M1.37842 14.698C1.42101 14.8002 1.48347 14.8929 1.56218 14.9708C1.64088 15.0487 1.73427 15.1102 1.83692 15.1517L5.83045 16.7819V15.9719L2.12018 14.4574C2.09752 14.4481 2.07946 14.4302 2.06992 14.4076C2.06039 14.3851 2.06016 14.3596 2.06928 14.3369L5.8786 5.03808L8.28509 3.95798L9.45832 2.60938L5.43476 4.41533C5.34705 4.45472 5.27783 4.5263 5.2414 4.61528L1.37513 14.0531C1.333 14.1555 1.31159 14.2652 1.31216 14.3759C1.31273 14.4866 1.33525 14.5961 1.37842 14.698Z" fill="black"/>
<path d="M15.3994 3.10398C15.7932 2.24906 15.6931 1.28866 15.15 0.714268C14.8239 0.339169 14.3739 0.0937887 13.882 0.0228967C13.3901 -0.0479954 12.8891 0.0603265 12.4704 0.328099C12.0756 0.623282 11.7613 1.01287 11.5562 1.46112C11.4769 1.47556 11.4047 1.51612 11.3511 1.57633L6.67255 6.95414C6.61319 7.02239 6.58049 7.10978 6.58044 7.20023V19.0323C6.58071 19.2558 6.6696 19.47 6.82761 19.6279C6.98562 19.7859 7.19984 19.8748 7.42328 19.875H14.0673C14.0769 19.623 14.1068 19.3722 14.1568 19.125H7.42328C7.39869 19.125 7.3751 19.1152 7.35769 19.0979C7.34028 19.0805 7.33048 19.0569 7.33044 19.0323V7.34049L11.0882 3.02102C10.9881 3.77317 11.0091 4.5365 11.1504 5.28202C10.8586 5.39849 10.6184 5.61603 10.4737 5.89491C10.329 6.1738 10.2894 6.49542 10.3622 6.80106C10.435 7.1067 10.6153 7.37596 10.8702 7.55968C11.1251 7.7434 11.4375 7.82932 11.7505 7.80175C12.0635 7.77418 12.3561 7.63496 12.5749 7.40951C12.7937 7.18406 12.9242 6.88743 12.9424 6.57377C12.9607 6.26011 12.8655 5.95035 12.6743 5.70106C12.483 5.45177 12.2085 5.27957 11.9009 5.2159C11.7322 4.38812 11.7344 3.53464 11.9072 2.70772L13.223 4.22025C13.2351 4.23669 13.2485 4.25212 13.2631 4.26637L15.9375 7.34049V16.315C16.1725 16.1383 16.4236 15.9841 16.6875 15.8544V7.20023C16.6875 7.10978 16.6548 7.02239 16.5954 6.95414L14.2444 4.25176C14.7632 4.03268 15.1771 3.62137 15.3994 3.10398ZM12.1946 6.49875C12.1947 6.60966 12.1619 6.7181 12.1003 6.81035C12.0388 6.9026 11.9512 6.97452 11.8488 7.01701C11.7463 7.0595 11.6336 7.07066 11.5248 7.04906C11.416 7.02747 11.3161 6.9741 11.2376 6.8957C11.1592 6.81731 11.1058 6.71741 11.0841 6.60864C11.0624 6.49987 11.0735 6.38712 11.1159 6.28465C11.1584 6.18218 11.2302 6.09459 11.3224 6.03297C11.4147 5.97134 11.5231 5.93845 11.634 5.93845C11.7826 5.93859 11.925 5.99766 12.0301 6.10269C12.1352 6.20773 12.1944 6.35016 12.1946 6.49875ZM14.7182 2.79014C14.6307 2.97959 14.3136 3.56396 13.6947 3.61994L12.1809 1.87987C12.3331 1.51095 12.5799 1.18867 12.8963 0.945537C13.1679 0.78025 13.4898 0.718001 13.8034 0.770126C14.1171 0.822252 14.4015 0.985283 14.605 1.22953C14.9916 1.6384 14.9403 2.30783 14.7182 2.79014Z" fill="black"/>
<path d="M14.8777 15.7282C14.8762 15.6523 14.8597 15.5773 14.8291 15.5078C14.7985 15.4383 14.7544 15.3755 14.6993 15.3232L14.5016 15.1339C14.5938 14.9512 14.6681 14.7602 14.7235 14.5633L14.9974 14.5572C15.1505 14.5535 15.2959 14.4893 15.4018 14.3787C15.5077 14.2681 15.5655 14.12 15.5625 13.9669L15.5623 13.9665L15.5462 13.235C15.5447 13.1592 15.5281 13.0844 15.4976 13.0149C15.467 12.9455 15.423 12.8827 15.368 12.8304C15.2564 12.7257 15.1086 12.6682 14.9555 12.67L14.6819 12.676C14.6178 12.4818 14.5351 12.2941 14.4351 12.1157L14.6243 11.918C14.6768 11.8631 14.718 11.7985 14.7455 11.7278C14.773 11.657 14.7863 11.5815 14.7847 11.5056C14.783 11.4297 14.7664 11.3549 14.7358 11.2854C14.7052 11.216 14.6612 11.1532 14.6063 11.1008L14.0779 10.5948C13.967 10.4891 13.8187 10.4317 13.6655 10.4351C13.5123 10.4385 13.3667 10.5026 13.2607 10.6132L13.0715 10.8109C12.8889 10.7187 12.6977 10.6444 12.5008 10.589L12.4947 10.3151C12.4911 10.1641 12.4286 10.0205 12.3206 9.91491C12.2125 9.80934 12.0675 9.75017 11.9165 9.75C11.9123 9.75 11.9081 9.75 11.9041 9.75019L11.1725 9.7663C11.0193 9.76973 10.8737 9.83388 10.7677 9.94465C10.6617 10.0554 10.6041 10.2037 10.6075 10.357L10.6135 10.6304C10.4193 10.6947 10.2317 10.7774 10.0532 10.8774L9.85547 10.6881C9.80061 10.6356 9.73595 10.5944 9.66518 10.5669C9.59441 10.5394 9.51892 10.5261 9.44302 10.5278C9.36712 10.5295 9.2923 10.5461 9.22282 10.5767C9.15334 10.6073 9.09057 10.6513 9.03809 10.7062L8.53271 11.2343C8.42684 11.3451 8.36927 11.4935 8.37263 11.6467C8.376 11.8 8.44002 11.9457 8.55066 12.0518L8.74841 12.2411C8.65624 12.4237 8.58193 12.6148 8.52649 12.8117L8.25256 12.8178C8.09942 12.8215 7.95399 12.8857 7.84812 12.9964C7.74225 13.1071 7.68456 13.2553 7.68768 13.4085L7.7038 14.14C7.70744 14.291 7.76995 14.4346 7.87798 14.5401C7.986 14.6457 8.131 14.7049 8.28205 14.705H8.2945L8.56806 14.699C8.6322 14.8932 8.71486 15.0808 8.81489 15.2593L8.6261 15.4567C8.57351 15.5115 8.53223 15.5761 8.50465 15.6469C8.47706 15.7177 8.4637 15.7932 8.46533 15.8692C8.46697 15.9451 8.48356 16.02 8.51416 16.0896C8.54476 16.1591 8.58878 16.2219 8.64368 16.2744L9.17175 16.7798C9.22601 16.8331 9.29057 16.8749 9.36151 16.9024C9.43244 16.93 9.50824 16.9427 9.58429 16.94C9.66023 16.9386 9.73513 16.9221 9.80465 16.8915C9.87418 16.8609 9.93694 16.8168 9.98932 16.7618L10.1786 16.5641C10.3612 16.6563 10.5523 16.7306 10.7492 16.786L10.7553 17.0599C10.7589 17.2109 10.8214 17.3545 10.9294 17.4601C11.0375 17.5657 11.1825 17.6248 11.3335 17.625C11.3377 17.625 11.3419 17.625 11.3459 17.6248L12.0775 17.6087C12.2307 17.6053 12.3763 17.5411 12.4823 17.4304C12.5883 17.3196 12.6459 17.1713 12.6425 17.018L12.6365 16.7444C12.8307 16.6803 13.0183 16.5976 13.1968 16.4976L13.3942 16.6864C13.5063 16.7905 13.6539 16.8479 13.8069 16.8472C13.8828 16.8457 13.9577 16.8292 14.0273 16.7986C14.0968 16.768 14.1596 16.7239 14.2119 16.6688L14.7169 16.1409C14.7697 16.0862 14.811 16.0215 14.8386 15.9507C14.8662 15.8798 14.8795 15.8042 14.8777 15.7282ZM14.0552 14.1282C13.999 14.4392 13.8834 14.7364 13.7146 15.0035C13.6685 15.0766 13.649 15.1635 13.6596 15.2493C13.6701 15.3351 13.71 15.4146 13.7725 15.4744L14.0565 15.7462L13.7889 16.0259L13.5048 15.7542C13.4423 15.6944 13.3611 15.6581 13.2749 15.6513C13.1887 15.6445 13.1028 15.6677 13.0318 15.717C12.7724 15.8976 12.4806 16.0262 12.1723 16.0959C12.0879 16.1149 12.0128 16.1626 11.9595 16.2307C11.9063 16.2989 11.8783 16.3833 11.8802 16.4698L11.8888 16.8627L11.5012 16.8713L11.4926 16.4784C11.4907 16.3919 11.4589 16.3088 11.4027 16.2431C11.3465 16.1773 11.2694 16.133 11.1843 16.1177C10.8733 16.0615 10.5761 15.9459 10.309 15.7771C10.2359 15.7309 10.149 15.7115 10.0632 15.722C9.97739 15.7326 9.89784 15.7725 9.83806 15.835L9.56615 16.1191L9.28638 15.8514L9.55829 15.5673C9.61806 15.5048 9.65441 15.4236 9.66119 15.3374C9.66796 15.2512 9.64474 15.1653 9.59546 15.0943C9.41492 14.8349 9.28628 14.5431 9.21661 14.2348C9.19764 14.1504 9.15002 14.0752 9.08186 14.0219C9.01369 13.9687 8.92918 13.9407 8.84271 13.9427L8.44977 13.9514L8.44116 13.5637L8.83411 13.5551C8.92056 13.5532 9.0037 13.5214 9.06943 13.4652C9.13516 13.409 9.17946 13.3319 9.19482 13.2468C9.25097 12.9358 9.36661 12.6386 9.5354 12.3715C9.58154 12.2984 9.60099 12.2115 9.59045 12.1257C9.5799 12.0399 9.54001 11.9603 9.47754 11.9006L9.19336 11.6287L9.46125 11.3489L9.74525 11.6208C9.80771 11.6806 9.88891 11.7169 9.9751 11.7237C10.0613 11.7305 10.1472 11.7073 10.2182 11.658C10.4777 11.4774 10.7696 11.3487 11.0779 11.2789C11.1622 11.2598 11.2373 11.2122 11.2905 11.144C11.3437 11.0759 11.3717 10.9915 11.3698 10.905L11.3612 10.5123L11.7488 10.5037L11.7574 10.8966C11.7593 10.9831 11.7911 11.0662 11.8473 11.1319C11.9035 11.1977 11.9806 11.242 12.0657 11.2573C12.3767 11.3133 12.6738 11.429 12.9408 11.5979C13.0139 11.6441 13.1008 11.6636 13.1867 11.6531C13.2726 11.6426 13.3522 11.6026 13.4119 11.54L13.6839 11.2559L13.9636 11.5236L13.6917 11.8077C13.6319 11.8702 13.5956 11.9514 13.5888 12.0376C13.582 12.1238 13.6053 12.2097 13.6545 12.2807C13.8351 12.5401 13.9637 12.832 14.0334 13.1402C14.0521 13.2232 14.0985 13.2973 14.1649 13.3504C14.2313 13.4035 14.3138 13.4324 14.3989 13.4324C14.4018 13.4324 14.4045 13.4324 14.4073 13.4323L14.8002 13.4236L14.8088 13.8113L14.4159 13.8199C14.3294 13.8218 14.2463 13.8536 14.1806 13.9098C14.1148 13.966 14.0705 14.0431 14.0552 14.1282Z" fill="black"/>
<path d="M11.625 12.3228C11.3551 12.3227 11.0913 12.4028 10.8669 12.5527C10.6424 12.7026 10.4675 12.9157 10.3642 13.1651C10.2609 13.4144 10.2339 13.6888 10.2865 13.9535C10.3392 14.2182 10.4691 14.4613 10.6599 14.6522C10.8508 14.843 11.0939 14.973 11.3586 15.0257C11.6233 15.0784 11.8977 15.0514 12.147 14.9481C12.3964 14.8448 12.6095 14.6699 12.7595 14.4456C12.9094 14.2212 12.9895 13.9573 12.9895 13.6874C12.9891 13.3256 12.8453 12.9788 12.5894 12.7229C12.3336 12.4671 11.9868 12.3232 11.625 12.3228ZM11.625 14.3019C11.5034 14.302 11.3846 14.2659 11.2835 14.1984C11.1824 14.1309 11.1036 14.0349 11.0571 13.9226C11.0106 13.8103 10.9984 13.6867 11.0221 13.5675C11.0458 13.4482 11.1044 13.3387 11.1903 13.2528C11.2763 13.1668 11.3858 13.1083 11.505 13.0846C11.6243 13.0608 11.7478 13.073 11.8601 13.1196C11.9725 13.1661 12.0684 13.2449 12.136 13.346C12.2035 13.447 12.2395 13.5659 12.2395 13.6874C12.2393 13.8504 12.1746 14.0066 12.0593 14.1218C11.9441 14.237 11.7879 14.3018 11.625 14.3019Z" fill="black"/>
<path d="M18.75 24C19.5288 24 20.29 23.7691 20.9376 23.3364C21.5851 22.9038 22.0898 22.2888 22.3878 21.5693C22.6858 20.8498 22.7638 20.0581 22.6118 19.2943C22.4599 18.5305 22.0849 17.8289 21.5342 17.2783C20.9836 16.7276 20.282 16.3526 19.5182 16.2007C18.7544 16.0487 17.9627 16.1267 17.2432 16.4247C16.5237 16.7227 15.9087 17.2274 15.4761 17.8749C15.0434 18.5225 14.8125 19.2837 14.8125 20.0625C14.8137 21.1064 15.2289 22.1072 15.9671 22.8454C16.7053 23.5836 17.7061 23.9988 18.75 24ZM18.375 16.8991V17.25C18.375 17.3495 18.4145 17.4448 18.4848 17.5152C18.5552 17.5855 18.6505 17.625 18.75 17.625C18.8495 17.625 18.9448 17.5855 19.0152 17.5152C19.0855 17.4448 19.125 17.3495 19.125 17.25V16.8991C19.835 16.9842 20.4958 17.3054 21.0015 17.811C21.5071 18.3167 21.8283 18.9775 21.9134 19.6875H21.5625C21.463 19.6875 21.3677 19.727 21.2973 19.7973C21.227 19.8677 21.1875 19.963 21.1875 20.0625C21.1875 20.162 21.227 20.2573 21.2973 20.3277C21.3677 20.398 21.463 20.4375 21.5625 20.4375H21.9134C21.8283 21.1475 21.5071 21.8083 21.0015 22.314C20.4958 22.8196 19.835 23.1408 19.125 23.2259V22.875C19.125 22.7755 19.0855 22.6802 19.0152 22.6098C18.9448 22.5395 18.8495 22.5 18.75 22.5C18.6505 22.5 18.5552 22.5395 18.4848 22.6098C18.4145 22.6802 18.375 22.7755 18.375 22.875V23.2259C17.665 23.1408 17.0042 22.8196 16.4985 22.314C15.9929 21.8083 15.6717 21.1475 15.5866 20.4375H15.9375C16.037 20.4375 16.1323 20.398 16.2027 20.3277C16.273 20.2573 16.3125 20.162 16.3125 20.0625C16.3125 19.963 16.273 19.8677 16.2027 19.7973C16.1323 19.727 16.037 19.6875 15.9375 19.6875H15.5866C15.6717 18.9775 15.9929 18.3167 16.4985 17.811C17.0042 17.3054 17.665 16.9842 18.375 16.8991Z" fill="black"/>
<path d="M18.75 20.25H19.5C19.5995 20.25 19.6948 20.2105 19.7652 20.1402C19.8355 20.0698 19.875 19.9745 19.875 19.875C19.875 19.7755 19.8355 19.6802 19.7652 19.6098C19.6948 19.5395 19.5995 19.5 19.5 19.5H19.125V18.375C19.125 18.2755 19.0855 18.1802 19.0152 18.1098C18.9448 18.0395 18.8495 18 18.75 18C18.6505 18 18.5552 18.0395 18.4848 18.1098C18.4145 18.1802 18.375 18.2755 18.375 18.375V19.875C18.375 19.9745 18.4145 20.0698 18.4848 20.1402C18.5552 20.2105 18.6505 20.25 18.75 20.25Z" fill="black"/>
</svg>
